# Blender 4.0.2
# www.blender.org
mtllib drum.mtl
o Cylinder
v -0.000000 -0.912830 -1.011225
v -0.000000 0.921327 -1.103583
v 0.199008 -0.912830 -0.991624
v 0.217026 0.921327 -1.082208
v 0.390368 -0.912830 -0.933576
v 0.425712 0.921327 -1.018903
v 0.566727 -0.912830 -0.839310
v 0.618038 0.921327 -0.916103
v 0.721306 -0.912830 -0.712450
v 0.786613 0.921327 -0.777757
v 0.848166 -0.912830 -0.557870
v 0.924959 0.921327 -0.609182
v 0.942432 -0.912830 -0.381512
v 1.027760 0.921327 -0.416856
v 1.000480 -0.912830 -0.190152
v 1.091064 0.921327 -0.208170
v 1.020081 -0.912830 0.008856
v 1.112439 0.921327 0.008856
v 1.000480 -0.912830 0.207864
v 1.091064 0.921327 0.225882
v 0.942432 -0.912830 0.399224
v 1.027760 0.921327 0.434568
v 0.848166 -0.912830 0.575583
v 0.924959 0.921327 0.626894
v 0.721306 -0.912830 0.730162
v 0.786613 0.921327 0.795470
v 0.566727 -0.912830 0.857023
v 0.618038 0.921327 0.933816
v 0.390368 -0.912830 0.951288
v 0.425712 0.921327 1.036616
v 0.199008 -0.912830 1.009337
v 0.217026 0.921327 1.099920
v -0.000000 -0.912830 1.028937
v -0.000000 0.921327 1.121295
v -0.199008 -0.912830 1.009337
v -0.217026 0.921327 1.099920
v -0.390368 -0.912830 0.951288
v -0.425712 0.921327 1.036616
v -0.566727 -0.912830 0.857023
v -0.618038 0.921327 0.933816
v -0.721306 -0.912830 0.730162
v -0.786613 0.921327 0.795470
v -0.848166 -0.912830 0.575583
v -0.924959 0.921327 0.626894
v -0.942432 -0.912830 0.399224
v -1.027760 0.921327 0.434568
v -1.000480 -0.912830 0.207864
v -1.091064 0.921327 0.225882
v -1.020081 -0.912830 0.008856
v -1.112439 0.921327 0.008856
v -1.000480 -0.912830 -0.190152
v -1.091064 0.921327 -0.208170
v -0.942432 -0.912830 -0.381512
v -1.027760 0.921327 -0.416856
v -0.848166 -0.912830 -0.557870
v -0.924959 0.921327 -0.609182
v -0.721306 -0.912830 -0.712450
v -0.786613 0.921327 -0.777757
v -0.566727 -0.912830 -0.839310
v -0.618038 0.921327 -0.916103
v -0.390368 -0.912830 -0.933576
v -0.425712 0.921327 -1.018903
v -0.199008 -0.912830 -0.991624
v -0.217026 0.921327 -1.082208
v -0.000000 0.816733 -1.103583
v 0.217026 0.816733 -1.082208
v 0.425712 0.816733 -1.018903
v 0.618038 0.816733 -0.916103
v 0.786613 0.816733 -0.777757
v 0.924959 0.816733 -0.609182
v 1.027760 0.816733 -0.416856
v 1.091064 0.816733 -0.208170
v 1.112439 0.816733 0.008856
v 1.091064 0.816733 0.225882
v 1.027760 0.816733 0.434568
v 0.924959 0.816733 0.626894
v 0.786613 0.816733 0.795470
v 0.618038 0.816733 0.933816
v 0.425712 0.816733 1.036616
v 0.217026 0.816733 1.099920
v -0.000000 0.816733 1.121295
v -0.217026 0.816733 1.099920
v -0.425712 0.816733 1.036616
v -0.618038 0.816733 0.933816
v -0.786613 0.816733 0.795470
v -0.924959 0.816733 0.626894
v -1.027760 0.816733 0.434568
v -1.091064 0.816733 0.225882
v -1.112439 0.816733 0.008856
v -1.091064 0.816733 -0.208170
v -1.027760 0.816733 -0.416856
v -0.924959 0.816733 -0.609182
v -0.786613 0.816733 -0.777757
v -0.618038 0.816733 -0.916103
v -0.425712 0.816733 -1.018903
v -0.217026 0.816733 -1.082208
v 0.217026 0.689726 -1.082208
v 0.425712 0.689726 -1.018903
v 0.618038 0.689726 -0.916103
v 0.786613 0.689726 -0.777757
v 0.924959 0.689726 -0.609182
v 1.027760 0.689726 -0.416856
v 1.091064 0.689726 -0.208170
v 1.112439 0.689726 0.008856
v 1.091064 0.689726 0.225882
v 1.027760 0.689726 0.434568
v 0.924959 0.689726 0.626894
v 0.786613 0.689726 0.795470
v 0.618038 0.689726 0.933816
v 0.425712 0.689726 1.036616
v 0.217026 0.689726 1.099920
v -0.000000 0.689726 1.121295
v -0.217026 0.689726 1.099920
v -0.425712 0.689726 1.036616
v -0.618038 0.689726 0.933816
v -0.786613 0.689726 0.795470
v -0.924959 0.689726 0.626894
v -1.027760 0.689726 0.434568
v -1.091064 0.689726 0.225882
v -1.112439 0.689726 0.008856
v -1.091064 0.689726 -0.208170
v -1.027760 0.689726 -0.416856
v -0.924959 0.689726 -0.609182
v -0.786613 0.689726 -0.777757
v -0.618038 0.689726 -0.916103
v -0.425712 0.689726 -1.018903
v -0.217026 0.689726 -1.082208
v -0.000000 0.689726 -1.103583
v 0.199008 -0.772390 -0.991624
v 0.390368 -0.772390 -0.933576
v 0.566727 -0.772390 -0.839310
v 0.721306 -0.772390 -0.712450
v 0.848166 -0.772390 -0.557870
v 0.942432 -0.772390 -0.381512
v 1.000480 -0.772390 -0.190152
v 1.020081 -0.772390 0.008856
v 1.000480 -0.772390 0.207864
v 0.942432 -0.772390 0.399224
v 0.848166 -0.772390 0.575583
v 0.721306 -0.772390 0.730162
v 0.566727 -0.772390 0.857023
v 0.390368 -0.772390 0.951288
v 0.199008 -0.772390 1.009337
v -0.000000 -0.772390 1.028937
v -0.199008 -0.772390 1.009337
v -0.390368 -0.772390 0.951288
v -0.566727 -0.772390 0.857023
v -0.721306 -0.772390 0.730162
v -0.848166 -0.772390 0.575583
v -0.942432 -0.772390 0.399224
v -1.000480 -0.772390 0.207864
v -1.020081 -0.772390 0.008856
v -1.000480 -0.772390 -0.190152
v -0.942432 -0.772390 -0.381512
v -0.848166 -0.772390 -0.557870
v -0.721306 -0.772390 -0.712450
v -0.566727 -0.772390 -0.839310
v -0.390368 -0.772390 -0.933576
v -0.199008 -0.772390 -0.991624
v -0.000000 -0.772390 -1.011225
v -0.000000 -0.622016 -1.011225
v 0.199008 -0.622016 -0.991624
v 0.390368 -0.622016 -0.933576
v 0.566727 -0.622016 -0.839310
v 0.721306 -0.622016 -0.712450
v 0.848166 -0.622016 -0.557870
v 0.942432 -0.622016 -0.381512
v 1.000480 -0.622016 -0.190152
v 1.020081 -0.622016 0.008856
v 1.000480 -0.622016 0.207864
v 0.942432 -0.622016 0.399224
v 0.848166 -0.622016 0.575583
v 0.721306 -0.622016 0.730162
v 0.566727 -0.622016 0.857023
v 0.390368 -0.622016 0.951288
v 0.199008 -0.622016 1.009337
v -0.000000 -0.622016 1.028937
v -0.199008 -0.622016 1.009337
v -0.390368 -0.622016 0.951288
v -0.566727 -0.622016 0.857023
v -0.721306 -0.622016 0.730162
v -0.848166 -0.622016 0.575583
v -0.942432 -0.622016 0.399224
v -1.000480 -0.622016 0.207864
v -1.020081 -0.622016 0.008856
v -1.000480 -0.622016 -0.190152
v -0.942432 -0.622016 -0.381512
v -0.848166 -0.622016 -0.557870
v -0.721306 -0.622016 -0.712450
v -0.566727 -0.622016 -0.839310
v -0.390368 -0.622016 -0.933576
v -0.199008 -0.622016 -0.991624
v 0.000000 -0.005106 -0.991144
v 0.195090 -0.005106 -0.971929
v 0.382683 -0.005106 -0.915023
v 0.555570 -0.005106 -0.822613
v 0.707107 -0.005106 -0.698251
v 0.831470 -0.005106 -0.546714
v 0.923880 -0.005106 -0.373827
v 0.980785 -0.005106 -0.186234
v 1.000000 -0.005106 0.008856
v 0.980785 -0.005106 0.203947
v 0.923880 -0.005106 0.391540
v 0.831470 -0.005106 0.564427
v 0.707107 -0.005106 0.715963
v 0.555570 -0.005106 0.840326
v 0.382683 -0.005106 0.932736
v 0.195090 -0.005106 0.989642
v 0.000000 -0.005106 1.008856
v -0.195090 -0.005106 0.989642
v -0.382683 -0.005106 0.932736
v -0.555570 -0.005106 0.840326
v -0.707107 -0.005106 0.715963
v -0.831470 -0.005106 0.564427
v -0.923880 -0.005106 0.391540
v -0.980785 -0.005106 0.203947
v -1.000000 -0.005106 0.008856
v -0.980785 -0.005106 -0.186234
v -0.923880 -0.005106 -0.373827
v -0.831470 -0.005106 -0.546714
v -0.707107 -0.005106 -0.698251
v -0.555570 -0.005106 -0.822613
v -0.382683 -0.005106 -0.915023
v -0.195090 -0.005106 -0.971929
vn 0.0980 -0.0000 -0.9952
vn 0.2903 -0.0000 -0.9569
vn 0.4714 -0.0000 -0.8819
vn 0.6344 -0.0000 -0.7730
vn 0.7730 -0.0000 -0.6344
vn 0.8819 -0.0000 -0.4714
vn 0.9569 -0.0000 -0.2903
vn 0.9952 -0.0000 -0.0980
vn 0.9952 -0.0000 0.0980
vn 0.9569 -0.0000 0.2903
vn 0.8819 -0.0000 0.4714
vn 0.7730 -0.0000 0.6344
vn 0.6344 -0.0000 0.7730
vn 0.4714 -0.0000 0.8819
vn 0.2903 -0.0000 0.9569
vn 0.0980 -0.0000 0.9952
vn -0.0980 -0.0000 0.9952
vn -0.2903 -0.0000 0.9569
vn -0.4714 -0.0000 0.8819
vn -0.6344 -0.0000 0.7730
vn -0.7730 -0.0000 0.6344
vn -0.8819 -0.0000 0.4714
vn -0.9569 -0.0000 0.2903
vn -0.9952 -0.0000 0.0980
vn -0.9952 -0.0000 -0.0980
vn -0.9569 -0.0000 -0.2903
vn -0.8819 -0.0000 -0.4714
vn -0.7730 -0.0000 -0.6344
vn -0.6344 -0.0000 -0.7730
vn -0.4714 -0.0000 -0.8819
vn -0.0000 1.0000 -0.0000
vn -0.2903 -0.0000 -0.9569
vn -0.0980 -0.0000 -0.9952
vn -0.0000 -1.0000 -0.0000
vn 0.0968 -0.1590 -0.9825
vn 0.2866 -0.1590 -0.9448
vn 0.4654 -0.1590 -0.8707
vn 0.6263 -0.1590 -0.7632
vn 0.7632 -0.1590 -0.6263
vn 0.8707 -0.1590 -0.4654
vn 0.9448 -0.1590 -0.2866
vn 0.9825 -0.1590 -0.0968
vn 0.9825 -0.1590 0.0968
vn 0.9448 -0.1590 0.2866
vn 0.8707 -0.1590 0.4654
vn 0.7632 -0.1590 0.6263
vn 0.6263 -0.1590 0.7632
vn 0.4654 -0.1590 0.8707
vn 0.2866 -0.1590 0.9448
vn 0.0968 -0.1590 0.9825
vn -0.0968 -0.1590 0.9825
vn -0.2866 -0.1590 0.9448
vn -0.4654 -0.1590 0.8707
vn -0.6263 -0.1590 0.7632
vn -0.7632 -0.1590 0.6263
vn -0.8707 -0.1590 0.4654
vn -0.9448 -0.1590 0.2866
vn -0.9825 -0.1590 0.0968
vn -0.9825 -0.1590 -0.0968
vn -0.9448 -0.1590 -0.2866
vn -0.8707 -0.1590 -0.4654
vn -0.7632 -0.1590 -0.6263
vn -0.6263 -0.1590 -0.7632
vn -0.4654 -0.1590 -0.8707
vn -0.2866 -0.1590 -0.9448
vn -0.0968 -0.1590 -0.9825
vn -0.0980 0.0324 -0.9947
vn -0.2901 0.0324 -0.9564
vn -0.4711 0.0324 -0.8815
vn -0.6341 0.0324 -0.7726
vn -0.7726 0.0324 -0.6341
vn -0.8815 0.0324 -0.4711
vn -0.9564 0.0324 -0.2901
vn -0.9947 0.0324 -0.0980
vn -0.9947 0.0324 0.0980
vn -0.9564 0.0324 0.2901
vn -0.8815 0.0324 0.4711
vn -0.7726 0.0324 0.6341
vn -0.6341 0.0324 0.7726
vn -0.4711 0.0324 0.8815
vn -0.2901 0.0324 0.9564
vn -0.0980 0.0324 0.9947
vn 0.0980 0.0324 0.9947
vn 0.2901 0.0324 0.9564
vn 0.4711 0.0324 0.8815
vn 0.6341 0.0324 0.7726
vn 0.7726 0.0324 0.6341
vn 0.8815 0.0324 0.4711
vn 0.9564 0.0324 0.2901
vn 0.9947 0.0324 0.0980
vn 0.9947 0.0324 -0.0980
vn 0.9564 0.0324 -0.2901
vn 0.8815 0.0324 -0.4711
vn 0.7726 0.0324 -0.6341
vn 0.6341 0.0324 -0.7726
vn 0.4711 0.0324 -0.8815
vn 0.2901 0.0324 -0.9564
vn 0.0980 0.0324 -0.9947
vt 1.000000 0.974170
vt 1.000000 1.000000
vt 0.968750 1.000000
vt 0.968750 0.974170
vt 0.937500 1.000000
vt 0.937500 0.974170
vt 0.906250 1.000000
vt 0.906250 0.974170
vt 0.875000 1.000000
vt 0.875000 0.974170
vt 0.843750 1.000000
vt 0.843750 0.974170
vt 0.812500 1.000000
vt 0.812500 0.974170
vt 0.781250 1.000000
vt 0.781250 0.974170
vt 0.750000 1.000000
vt 0.750000 0.974170
vt 0.718750 1.000000
vt 0.718750 0.974170
vt 0.687500 1.000000
vt 0.687500 0.974170
vt 0.656250 1.000000
vt 0.656250 0.974170
vt 0.625000 1.000000
vt 0.625000 0.974170
vt 0.593750 1.000000
vt 0.593750 0.974170
vt 0.562500 1.000000
vt 0.562500 0.974170
vt 0.531250 1.000000
vt 0.531250 0.974170
vt 0.500000 1.000000
vt 0.500000 0.974170
vt 0.468750 1.000000
vt 0.468750 0.974170
vt 0.437500 1.000000
vt 0.437500 0.974170
vt 0.406250 1.000000
vt 0.406250 0.974170
vt 0.375000 1.000000
vt 0.375000 0.974170
vt 0.343750 1.000000
vt 0.343750 0.974170
vt 0.312500 1.000000
vt 0.312500 0.974170
vt 0.281250 1.000000
vt 0.281250 0.974170
vt 0.250000 1.000000
vt 0.250000 0.974170
vt 0.218750 1.000000
vt 0.218750 0.974170
vt 0.187500 1.000000
vt 0.187500 0.974170
vt 0.156250 1.000000
vt 0.156250 0.974170
vt 0.125000 1.000000
vt 0.125000 0.974170
vt 0.093750 1.000000
vt 0.093750 0.974170
vt 0.062500 1.000000
vt 0.062500 0.974170
vt 0.296822 0.485388
vt 0.250000 0.490000
vt 0.203178 0.485388
vt 0.158156 0.471731
vt 0.116663 0.449553
vt 0.080294 0.419706
vt 0.050447 0.383337
vt 0.028269 0.341844
vt 0.014612 0.296822
vt 0.010000 0.250000
vt 0.014612 0.203178
vt 0.028269 0.158156
vt 0.050447 0.116663
vt 0.080294 0.080294
vt 0.116663 0.050447
vt 0.158156 0.028269
vt 0.203178 0.014612
vt 0.250000 0.010000
vt 0.296822 0.014612
vt 0.341844 0.028269
vt 0.383337 0.050447
vt 0.419706 0.080294
vt 0.449553 0.116663
vt 0.471731 0.158156
vt 0.485388 0.203178
vt 0.490000 0.250000
vt 0.485388 0.296822
vt 0.471731 0.341844
vt 0.449553 0.383337
vt 0.419706 0.419706
vt 0.383337 0.449553
vt 0.341844 0.471731
vt 0.031250 1.000000
vt 0.031250 0.974170
vt 0.000000 1.000000
vt 0.000000 0.974170
vt 0.750000 0.490000
vt 0.796822 0.485388
vt 0.841844 0.471731
vt 0.883337 0.449553
vt 0.919706 0.419706
vt 0.949553 0.383337
vt 0.971731 0.341844
vt 0.985388 0.296822
vt 0.990000 0.250000
vt 0.985388 0.203178
vt 0.971731 0.158156
vt 0.949553 0.116663
vt 0.919706 0.080294
vt 0.883337 0.050447
vt 0.841844 0.028269
vt 0.796822 0.014612
vt 0.750000 0.010000
vt 0.703178 0.014612
vt 0.658156 0.028269
vt 0.616663 0.050447
vt 0.580294 0.080294
vt 0.550447 0.116663
vt 0.528269 0.158156
vt 0.514612 0.203178
vt 0.510000 0.250000
vt 0.514612 0.296822
vt 0.528269 0.341844
vt 0.550447 0.383337
vt 0.580294 0.419706
vt 0.616663 0.449553
vt 0.658156 0.471731
vt 0.703178 0.485388
vt 0.031250 0.942804
vt 0.000000 0.942804
vt 0.062500 0.942804
vt 0.093750 0.942804
vt 0.125000 0.942804
vt 0.156250 0.942804
vt 0.187500 0.942804
vt 0.218750 0.942804
vt 0.250000 0.942804
vt 0.281250 0.942804
vt 0.312500 0.942804
vt 0.343750 0.942804
vt 0.375000 0.942804
vt 0.406250 0.942804
vt 0.437500 0.942804
vt 0.468750 0.942804
vt 0.500000 0.942804
vt 0.531250 0.942804
vt 0.562500 0.942804
vt 0.593750 0.942804
vt 0.625000 0.942804
vt 0.656250 0.942804
vt 0.687500 0.942804
vt 0.718750 0.942804
vt 0.750000 0.942804
vt 0.781250 0.942804
vt 0.812500 0.942804
vt 0.843750 0.942804
vt 0.875000 0.942804
vt 0.906250 0.942804
vt 0.937500 0.942804
vt 0.968750 0.942804
vt 1.000000 0.942804
vt 1.000000 0.748597
vt 0.968750 0.748597
vt 0.937500 0.748597
vt 0.906250 0.748597
vt 0.875000 0.748597
vt 0.843750 0.748597
vt 0.812500 0.748597
vt 0.781250 0.748597
vt 0.750000 0.748597
vt 0.718750 0.748597
vt 0.687500 0.748597
vt 0.656250 0.748597
vt 0.625000 0.748597
vt 0.593750 0.748597
vt 0.562500 0.748597
vt 0.531250 0.748597
vt 0.500000 0.748597
vt 0.468750 0.748597
vt 0.437500 0.748597
vt 0.406250 0.748597
vt 0.375000 0.748597
vt 0.343750 0.748597
vt 0.312500 0.748597
vt 0.281250 0.748597
vt 0.250000 0.748597
vt 0.218750 0.748597
vt 0.187500 0.748597
vt 0.156250 0.748597
vt 0.125000 0.748597
vt 0.093750 0.748597
vt 0.062500 0.748597
vt 0.031250 0.748597
vt 0.000000 0.748597
vt 0.031250 0.500000
vt 0.031250 0.537823
vt 0.000000 0.537823
vt 0.000000 0.500000
vt 0.062500 0.500000
vt 0.062500 0.537823
vt 0.093750 0.500000
vt 0.093750 0.537823
vt 0.125000 0.500000
vt 0.125000 0.537823
vt 0.156250 0.500000
vt 0.156250 0.537823
vt 0.187500 0.500000
vt 0.187500 0.537823
vt 0.218750 0.500000
vt 0.218750 0.537823
vt 0.250000 0.500000
vt 0.250000 0.537823
vt 0.281250 0.500000
vt 0.281250 0.537823
vt 0.312500 0.500000
vt 0.312500 0.537823
vt 0.343750 0.500000
vt 0.343750 0.537823
vt 0.375000 0.500000
vt 0.375000 0.537823
vt 0.406250 0.500000
vt 0.406250 0.537823
vt 0.437500 0.500000
vt 0.437500 0.537823
vt 0.468750 0.500000
vt 0.468750 0.537823
vt 0.500000 0.500000
vt 0.500000 0.537823
vt 0.531250 0.500000
vt 0.531250 0.537823
vt 0.562500 0.500000
vt 0.562500 0.537823
vt 0.593750 0.500000
vt 0.593750 0.537823
vt 0.625000 0.500000
vt 0.625000 0.537823
vt 0.656250 0.500000
vt 0.656250 0.537823
vt 0.687500 0.500000
vt 0.687500 0.537823
vt 0.718750 0.500000
vt 0.718750 0.537823
vt 0.750000 0.500000
vt 0.750000 0.537823
vt 0.781250 0.500000
vt 0.781250 0.537823
vt 0.812500 0.500000
vt 0.812500 0.537823
vt 0.843750 0.500000
vt 0.843750 0.537823
vt 0.875000 0.500000
vt 0.875000 0.537823
vt 0.906250 0.500000
vt 0.906250 0.537823
vt 0.937500 0.500000
vt 0.937500 0.537823
vt 0.968750 0.500000
vt 0.968750 0.537823
vt 1.000000 0.500000
vt 1.000000 0.537823
vt 0.031250 0.578321
vt 0.000000 0.578321
vt 0.062500 0.578321
vt 0.093750 0.578321
vt 0.125000 0.578321
vt 0.156250 0.578321
vt 0.187500 0.578321
vt 0.218750 0.578321
vt 0.250000 0.578321
vt 0.281250 0.578321
vt 0.312500 0.578321
vt 0.343750 0.578321
vt 0.375000 0.578321
vt 0.406250 0.578321
vt 0.437500 0.578321
vt 0.468750 0.578321
vt 0.500000 0.578321
vt 0.531250 0.578321
vt 0.562500 0.578321
vt 0.593750 0.578321
vt 0.625000 0.578321
vt 0.656250 0.578321
vt 0.687500 0.578321
vt 0.718750 0.578321
vt 0.750000 0.578321
vt 0.781250 0.578321
vt 0.812500 0.578321
vt 0.843750 0.578321
vt 0.875000 0.578321
vt 0.906250 0.578321
vt 0.937500 0.578321
vt 0.968750 0.578321
vt 1.000000 0.578321
s 0
f 65/1/1 2/2/1 4/3/1 66/4/1
f 66/4/2 4/3/2 6/5/2 67/6/2
f 67/6/3 6/5/3 8/7/3 68/8/3
f 68/8/4 8/7/4 10/9/4 69/10/4
f 69/10/5 10/9/5 12/11/5 70/12/5
f 70/12/6 12/11/6 14/13/6 71/14/6
f 71/14/7 14/13/7 16/15/7 72/16/7
f 72/16/8 16/15/8 18/17/8 73/18/8
f 73/18/9 18/17/9 20/19/9 74/20/9
f 74/20/10 20/19/10 22/21/10 75/22/10
f 75/22/11 22/21/11 24/23/11 76/24/11
f 76/24/12 24/23/12 26/25/12 77/26/12
f 77/26/13 26/25/13 28/27/13 78/28/13
f 78/28/14 28/27/14 30/29/14 79/30/14
f 79/30/15 30/29/15 32/31/15 80/32/15
f 80/32/16 32/31/16 34/33/16 81/34/16
f 81/34/17 34/33/17 36/35/17 82/36/17
f 82/36/18 36/35/18 38/37/18 83/38/18
f 83/38/19 38/37/19 40/39/19 84/40/19
f 84/40/20 40/39/20 42/41/20 85/42/20
f 85/42/21 42/41/21 44/43/21 86/44/21
f 86/44/22 44/43/22 46/45/22 87/46/22
f 87/46/23 46/45/23 48/47/23 88/48/23
f 88/48/24 48/47/24 50/49/24 89/50/24
f 89/50/25 50/49/25 52/51/25 90/52/25
f 90/52/26 52/51/26 54/53/26 91/54/26
f 91/54/27 54/53/27 56/55/27 92/56/27
f 92/56/28 56/55/28 58/57/28 93/58/28
f 93/58/29 58/57/29 60/59/29 94/60/29
f 94/60/30 60/59/30 62/61/30 95/62/30
f 4/63/31 2/64/31 64/65/31 62/66/31 60/67/31 58/68/31 56/69/31 54/70/31 52/71/31 50/72/31 48/73/31 46/74/31 44/75/31 42/76/31 40/77/31 38/78/31 36/79/31 34/80/31 32/81/31 30/82/31 28/83/31 26/84/31 24/85/31 22/86/31 20/87/31 18/88/31 16/89/31 14/90/31 12/91/31 10/92/31 8/93/31 6/94/31
f 95/62/32 62/61/32 64/95/32 96/96/32
f 96/96/33 64/95/33 2/97/33 65/98/33
f 1/99/34 3/100/34 5/101/34 7/102/34 9/103/34 11/104/34 13/105/34 15/106/34 17/107/34 19/108/34 21/109/34 23/110/34 25/111/34 27/112/34 29/113/34 31/114/34 33/115/34 35/116/34 37/117/34 39/118/34 41/119/34 43/120/34 45/121/34 47/122/34 49/123/34 51/124/34 53/125/34 55/126/34 57/127/34 59/128/34 61/129/34 63/130/34
f 127/131/33 96/96/33 65/98/33 128/132/33
f 126/133/32 95/62/32 96/96/32 127/131/32
f 125/134/30 94/60/30 95/62/30 126/133/30
f 124/135/29 93/58/29 94/60/29 125/134/29
f 123/136/28 92/56/28 93/58/28 124/135/28
f 122/137/27 91/54/27 92/56/27 123/136/27
f 121/138/26 90/52/26 91/54/26 122/137/26
f 120/139/25 89/50/25 90/52/25 121/138/25
f 119/140/24 88/48/24 89/50/24 120/139/24
f 118/141/23 87/46/23 88/48/23 119/140/23
f 117/142/22 86/44/22 87/46/22 118/141/22
f 116/143/21 85/42/21 86/44/21 117/142/21
f 115/144/20 84/40/20 85/42/20 116/143/20
f 114/145/19 83/38/19 84/40/19 115/144/19
f 113/146/18 82/36/18 83/38/18 114/145/18
f 112/147/17 81/34/17 82/36/17 113/146/17
f 111/148/16 80/32/16 81/34/16 112/147/16
f 110/149/15 79/30/15 80/32/15 111/148/15
f 109/150/14 78/28/14 79/30/14 110/149/14
f 108/151/13 77/26/13 78/28/13 109/150/13
f 107/152/12 76/24/12 77/26/12 108/151/12
f 106/153/11 75/22/11 76/24/11 107/152/11
f 105/154/10 74/20/10 75/22/10 106/153/10
f 104/155/9 73/18/9 74/20/9 105/154/9
f 103/156/8 72/16/8 73/18/8 104/155/8
f 102/157/7 71/14/7 72/16/7 103/156/7
f 101/158/6 70/12/6 71/14/6 102/157/6
f 100/159/5 69/10/5 70/12/5 101/158/5
f 99/160/4 68/8/4 69/10/4 100/159/4
f 98/161/3 67/6/3 68/8/3 99/160/3
f 97/162/2 66/4/2 67/6/2 98/161/2
f 128/163/1 65/1/1 66/4/1 97/162/1
f 193/164/35 128/163/35 97/162/35 194/165/35
f 194/165/36 97/162/36 98/161/36 195/166/36
f 195/166/37 98/161/37 99/160/37 196/167/37
f 196/167/38 99/160/38 100/159/38 197/168/38
f 197/168/39 100/159/39 101/158/39 198/169/39
f 198/169/40 101/158/40 102/157/40 199/170/40
f 199/170/41 102/157/41 103/156/41 200/171/41
f 200/171/42 103/156/42 104/155/42 201/172/42
f 201/172/43 104/155/43 105/154/43 202/173/43
f 202/173/44 105/154/44 106/153/44 203/174/44
f 203/174/45 106/153/45 107/152/45 204/175/45
f 204/175/46 107/152/46 108/151/46 205/176/46
f 205/176/47 108/151/47 109/150/47 206/177/47
f 206/177/48 109/150/48 110/149/48 207/178/48
f 207/178/49 110/149/49 111/148/49 208/179/49
f 208/179/50 111/148/50 112/147/50 209/180/50
f 209/180/51 112/147/51 113/146/51 210/181/51
f 210/181/52 113/146/52 114/145/52 211/182/52
f 211/182/53 114/145/53 115/144/53 212/183/53
f 212/183/54 115/144/54 116/143/54 213/184/54
f 213/184/55 116/143/55 117/142/55 214/185/55
f 214/185/56 117/142/56 118/141/56 215/186/56
f 215/186/57 118/141/57 119/140/57 216/187/57
f 216/187/58 119/140/58 120/139/58 217/188/58
f 217/188/59 120/139/59 121/138/59 218/189/59
f 218/189/60 121/138/60 122/137/60 219/190/60
f 219/190/61 122/137/61 123/136/61 220/191/61
f 220/191/62 123/136/62 124/135/62 221/192/62
f 221/192/63 124/135/63 125/134/63 222/193/63
f 222/193/64 125/134/64 126/133/64 223/194/64
f 223/194/65 126/133/65 127/131/65 224/195/65
f 224/195/66 127/131/66 128/132/66 193/196/66
f 63/197/33 159/198/33 160/199/33 1/200/33
f 61/201/32 158/202/32 159/198/32 63/197/32
f 59/203/30 157/204/30 158/202/30 61/201/30
f 57/205/29 156/206/29 157/204/29 59/203/29
f 55/207/28 155/208/28 156/206/28 57/205/28
f 53/209/27 154/210/27 155/208/27 55/207/27
f 51/211/26 153/212/26 154/210/26 53/209/26
f 49/213/25 152/214/25 153/212/25 51/211/25
f 47/215/24 151/216/24 152/214/24 49/213/24
f 45/217/23 150/218/23 151/216/23 47/215/23
f 43/219/22 149/220/22 150/218/22 45/217/22
f 41/221/21 148/222/21 149/220/21 43/219/21
f 39/223/20 147/224/20 148/222/20 41/221/20
f 37/225/19 146/226/19 147/224/19 39/223/19
f 35/227/18 145/228/18 146/226/18 37/225/18
f 33/229/17 144/230/17 145/228/17 35/227/17
f 31/231/16 143/232/16 144/230/16 33/229/16
f 29/233/15 142/234/15 143/232/15 31/231/15
f 27/235/14 141/236/14 142/234/14 29/233/14
f 25/237/13 140/238/13 141/236/13 27/235/13
f 23/239/12 139/240/12 140/238/12 25/237/12
f 21/241/11 138/242/11 139/240/11 23/239/11
f 19/243/10 137/244/10 138/242/10 21/241/10
f 17/245/9 136/246/9 137/244/9 19/243/9
f 15/247/8 135/248/8 136/246/8 17/245/8
f 13/249/7 134/250/7 135/248/7 15/247/7
f 11/251/6 133/252/6 134/250/6 13/249/6
f 9/253/5 132/254/5 133/252/5 11/251/5
f 7/255/4 131/256/4 132/254/4 9/253/4
f 5/257/3 130/258/3 131/256/3 7/255/3
f 3/259/2 129/260/2 130/258/2 5/257/2
f 1/261/1 160/262/1 129/260/1 3/259/1
f 159/198/33 192/263/33 161/264/33 160/199/33
f 158/202/32 191/265/32 192/263/32 159/198/32
f 157/204/30 190/266/30 191/265/30 158/202/30
f 156/206/29 189/267/29 190/266/29 157/204/29
f 155/208/28 188/268/28 189/267/28 156/206/28
f 154/210/27 187/269/27 188/268/27 155/208/27
f 153/212/26 186/270/26 187/269/26 154/210/26
f 152/214/25 185/271/25 186/270/25 153/212/25
f 151/216/24 184/272/24 185/271/24 152/214/24
f 150/218/23 183/273/23 184/272/23 151/216/23
f 149/220/22 182/274/22 183/273/22 150/218/22
f 148/222/21 181/275/21 182/274/21 149/220/21
f 147/224/20 180/276/20 181/275/20 148/222/20
f 146/226/19 179/277/19 180/276/19 147/224/19
f 145/228/18 178/278/18 179/277/18 146/226/18
f 144/230/17 177/279/17 178/278/17 145/228/17
f 143/232/16 176/280/16 177/279/16 144/230/16
f 142/234/15 175/281/15 176/280/15 143/232/15
f 141/236/14 174/282/14 175/281/14 142/234/14
f 140/238/13 173/283/13 174/282/13 141/236/13
f 139/240/12 172/284/12 173/283/12 140/238/12
f 138/242/11 171/285/11 172/284/11 139/240/11
f 137/244/10 170/286/10 171/285/10 138/242/10
f 136/246/9 169/287/9 170/286/9 137/244/9
f 135/248/8 168/288/8 169/287/8 136/246/8
f 134/250/7 167/289/7 168/288/7 135/248/7
f 133/252/6 166/290/6 167/289/6 134/250/6
f 132/254/5 165/291/5 166/290/5 133/252/5
f 131/256/4 164/292/4 165/291/4 132/254/4
f 130/258/3 163/293/3 164/292/3 131/256/3
f 129/260/2 162/294/2 163/293/2 130/258/2
f 160/262/1 161/295/1 162/294/1 129/260/1
f 192/263/67 224/195/67 193/196/67 161/264/67
f 191/265/68 223/194/68 224/195/68 192/263/68
f 190/266/69 222/193/69 223/194/69 191/265/69
f 189/267/70 221/192/70 222/193/70 190/266/70
f 188/268/71 220/191/71 221/192/71 189/267/71
f 187/269/72 219/190/72 220/191/72 188/268/72
f 186/270/73 218/189/73 219/190/73 187/269/73
f 185/271/74 217/188/74 218/189/74 186/270/74
f 184/272/75 216/187/75 217/188/75 185/271/75
f 183/273/76 215/186/76 216/187/76 184/272/76
f 182/274/77 214/185/77 215/186/77 183/273/77
f 181/275/78 213/184/78 214/185/78 182/274/78
f 180/276/79 212/183/79 213/184/79 181/275/79
f 179/277/80 211/182/80 212/183/80 180/276/80
f 178/278/81 210/181/81 211/182/81 179/277/81
f 177/279/82 209/180/82 210/181/82 178/278/82
f 176/280/83 208/179/83 209/180/83 177/279/83
f 175/281/84 207/178/84 208/179/84 176/280/84
f 174/282/85 206/177/85 207/178/85 175/281/85
f 173/283/86 205/176/86 206/177/86 174/282/86
f 172/284/87 204/175/87 205/176/87 173/283/87
f 171/285/88 203/174/88 204/175/88 172/284/88
f 170/286/89 202/173/89 203/174/89 171/285/89
f 169/287/90 201/172/90 202/173/90 170/286/90
f 168/288/91 200/171/91 201/172/91 169/287/91
f 167/289/92 199/170/92 200/171/92 168/288/92
f 166/290/93 198/169/93 199/170/93 167/289/93
f 165/291/94 197/168/94 198/169/94 166/290/94
f 164/292/95 196/167/95 197/168/95 165/291/95
f 163/293/96 195/166/96 196/167/96 164/292/96
f 162/294/97 194/165/97 195/166/97 163/293/97
f 161/295/98 193/164/98 194/165/98 162/294/98
